<?xml version="1.0" encoding="utf-8"?>
<!-- Generator: Adobe Illustrator 25.4.1, SVG Export Plug-In . SVG Version: 6.00 Build 0)  -->
<svg version="1.1" id="레이어_4" xmlns="http://www.w3.org/2000/svg" xmlns:xlink="http://www.w3.org/1999/xlink" x="0px"
	 y="0px" viewBox="0 0 180 180" style="enable-background:new 0 0 180 180;" xml:space="preserve">
<style type="text/css">
	.st0{fill-rule:evenodd;clip-rule:evenodd;fill:#2E9ED1;}
</style>
<path class="st0" d="M151.9,51.6c-4.6,2-9.5,3.4-14.6,4c5.3-3.2,9.3-8.2,11.2-14.1c-4.9,2.9-10.4,5-16.2,6.2
	c-4.6-5-11.3-8.1-18.6-8.1c-14.1,0-25.5,11.4-25.5,25.5c0,2,0.2,3.9,0.6,5.8C67.8,69.9,49,59.8,36.5,44.3c-2.2,3.7-3.4,8.1-3.4,12.8
	c0,8.9,4.5,16.6,11.3,21.2c-4.2-0.2-8.1-1.3-11.5-3.2v0.3c0,12.3,8.8,22.7,20.4,25c-2.2,0.6-4.4,0.9-6.7,0.9c-1.7,0-3.3-0.2-4.8-0.5
	c3.3,10.1,12.7,17.5,23.8,17.7c-8.7,6.8-19.7,10.9-31.6,10.9c-2,0-4.1-0.1-6.1-0.3c11.3,7.2,24.6,11.5,39.1,11.5
	c46.8,0,72.4-38.8,72.4-72.5c0-1.1,0-2.2-0.1-3.3C144.2,61.3,148.5,56.8,151.9,51.6"/>
</svg>
