<?xml version="1.0" encoding="utf-8"?>
<!-- Generator: Adobe Illustrator 25.4.1, SVG Export Plug-In . SVG Version: 6.00 Build 0)  -->
<svg version="1.1" xmlns="http://www.w3.org/2000/svg" xmlns:xlink="http://www.w3.org/1999/xlink" x="0px" y="0px"
	 viewBox="0 0 180 180" style="enable-background:new 0 0 180 180;" xml:space="preserve">
<style type="text/css">
	.st0{fill-rule:evenodd;clip-rule:evenodd;fill:#395590;}
	.st1{display:none;}
	.st2{display:inline;fill-rule:evenodd;clip-rule:evenodd;fill:#E7D421;}
	.st3{display:inline;fill-rule:evenodd;clip-rule:evenodd;fill:#38AB37;}
	.st4{display:inline;fill-rule:evenodd;clip-rule:evenodd;fill:#2E9ED1;}
	.st5{display:inline;}
	.st6{fill-rule:evenodd;clip-rule:evenodd;fill:#371E1D;}
	.st7{fill-rule:evenodd;clip-rule:evenodd;fill:#F4DE26;}
</style>
<g id="레이어_1">
	<path class="st0" d="M102.3,170.3V97.2h24.5l3.7-28.5h-28.2V50.5c0-8.3,2.3-13.8,14.1-13.8h15.1V11.2c-2.6-0.3-11.6-1.1-22-1.1
		c-21.7,0-36.6,13.3-36.6,37.7v21H48.3v28.5h24.6v73.1H102.3z"/>
</g>
<g id="레이어_2" class="st1">
	<path class="st2" d="M115,31.5H64.8c-3.4,0-6.1,2.7-6.1,6.1v49.8c0,3.4,2.7,6.1,6.1,6.1h23.1c-0.2,5.9-2.6,12.3-6.2,18.1
		c-4,6.4-12.6,13.6-12.7,13.6c-0.7,0.6-1.2,1.4-1.2,2.4c0,0.8,0.4,1.4,0.9,2l16.1,18.1c0,0,0.8,0.8,1.4,1c0.7,0.2,1.5,0.2,2.1-0.3
		c27.9-21.5,31.9-48.4,32.6-63V37.5C121,34.2,118.3,31.5,115,31.5"/>
	<path class="st3" d="M89.9,50.5c-4.6,0-9.1,0.6-13.3,1.7V43v-1.1c0-0.2,0-0.5-0.1-0.7c-0.8-11.3-9.6-19.6-20.3-19.6
		c-10.7,0-19.5,8.3-20.3,19.6c0,0.2-0.1,38.5-0.1,38.5v24.9c0,0.2,0,0.3,0,0.5c0.3,29.7,24.4,53.6,54.1,53.6
		c29.9,0,54.1-24.2,54.1-54.1S119.8,50.5,89.9,50.5z M89.9,150.4c-25.3,0-45.8-20.5-45.8-45.8V42.3c0-6.7,5.4-12.2,12.1-12.2
		c6.7,0,12.1,5.5,12.1,12.2l0,61.8c0,12,9.7,22.2,21.7,22.2c12,0,21.7-9.7,21.7-21.7c0-12-9.7-21.7-21.7-21.7c-5,0-9.6,1.7-13.3,4.6
		v-9.3c4-2,8.5-3.2,13.3-3.2c16.3,0,29.6,13.2,29.6,29.6c0,16.3-13.2,29.6-29.6,29.6c-16.3,0-29.6-13.2-29.6-29.6V41.9
		c0-2-1.8-4-4.1-4c-2.3,0-4.1,1.9-4.1,4v62.7c0,0.9,0,1.9,0.1,2.8c1.4,19.6,17.8,35,37.8,35c20.9,0,37.9-17,37.9-37.9
		c0-20.9-17-37.9-37.9-37.9c-4.7,0-9.2,0.9-13.3,2.4v-8.4c4.2-1.3,8.7-2,13.3-2c25.3,0,45.8,20.5,45.8,45.8
		C135.7,129.9,115.2,150.4,89.9,150.4z M76.6,104.6c0-7.4,6-13.3,13.3-13.3c7.4,0,13.3,6,13.3,13.3c0,7.4-6,13.3-13.3,13.3
		C82.6,117.9,76.6,112,76.6,104.6z"/>
</g>
<g id="레이어_4" class="st1">
	<path class="st4" d="M151.9,51.6c-4.6,2-9.5,3.4-14.6,4c5.3-3.2,9.3-8.2,11.2-14.1c-4.9,2.9-10.4,5-16.2,6.2
		c-4.6-5-11.3-8.1-18.6-8.1c-14.1,0-25.5,11.4-25.5,25.5c0,2,0.2,3.9,0.6,5.8C67.8,69.9,49,59.8,36.5,44.3
		c-2.2,3.7-3.4,8.1-3.4,12.8c0,8.9,4.5,16.6,11.3,21.2c-4.2-0.2-8.1-1.3-11.5-3.2v0.3c0,12.3,8.8,22.7,20.4,25
		c-2.2,0.6-4.4,0.9-6.7,0.9c-1.7,0-3.3-0.2-4.8-0.5c3.3,10.1,12.7,17.5,23.8,17.7c-8.7,6.8-19.7,10.9-31.6,10.9
		c-2,0-4.1-0.1-6.1-0.3c11.3,7.2,24.6,11.5,39.1,11.5c46.8,0,72.4-38.8,72.4-72.5c0-1.1,0-2.2-0.1-3.3
		C144.2,61.3,148.5,56.8,151.9,51.6"/>
</g>
<g id="레이어_3" class="st1">
	<g class="st5">
		<g transform="translate(-37 -243)">
			<path class="st6" d="M126.9,266.1c-40.1,0-72.6,25.7-72.6,57.3c0,20.4,13.5,38.2,33.7,48.4l-6.9,25.6c-0.3,0.8,0,1.6,0.5,2.2
				c0.4,0.4,0.9,0.6,1.5,0.6c0.5,0,0.9-0.2,1.2-0.5l29.4-19.9c4.3,0.6,8.6,0.9,13.1,0.9c40.1,0,72.6-25.7,72.6-57.3
				C199.5,291.8,167,266.1,126.9,266.1"/>
			<path class="st7" d="M79.7,314.5h-8c-1.1,0-2-0.3-2.8-0.8c-0.8-0.5-1.3-1.2-1.5-2.1c0-0.2-0.1-0.5-0.1-0.8c0-1.1,0.4-2.1,1.3-2.7
				c0.8-0.6,1.9-1,3.1-1h24.5c1.1,0,2.1,0.3,2.8,0.8c0.8,0.5,1.3,1.2,1.5,2.1c0,0.3,0.1,0.5,0,0.8c0,1.2-0.4,2.1-1.2,2.8
				s-1.8,1-3.1,1h-8V342c0,1.3-0.4,2.4-1.2,3.2c-0.8,0.8-1.8,1.2-3.1,1.2c-1.1,0-2-0.3-2.7-0.9c-0.8-0.6-1.2-1.4-1.4-2.4
				c-0.1-0.4-0.1-0.7-0.1-1.1V314.5z"/>
			<path class="st7" d="M102.8,309.7c0.3-0.9,0.8-1.6,1.5-2c0.7-0.4,1.5-0.6,2.6-0.6h2c1.1,0,2,0.2,2.7,0.6c0.7,0.4,1.3,1.3,1.7,2.5
				l10.1,29c0.3,0.9,0.6,1.6,0.7,2.3c0.1,0.4,0.2,0.8,0.2,1c0,1-0.4,1.9-1.2,2.7c-0.8,0.8-1.7,1.1-2.8,1.1c-1.9,0-3.2-0.8-3.8-2.4
				l-2.2-6.3H101l-2.2,6.3c-0.5,1.6-1.8,2.4-3.8,2.4c-1,0-1.8-0.2-2.5-0.8c-0.7-0.5-1.1-1.2-1.3-2.1c-0.1-0.3-0.1-0.6-0.1-0.9
				c0-0.4,0-0.9,0.2-1.5c0.2-0.6,0.3-1.2,0.6-1.8L102.8,309.7z M107.9,316.4h-0.1l-4.9,15.2h9.8L107.9,316.4z"/>
			<path class="st7" d="M125.3,311.3c0-1.3,0.4-2.3,1.1-3.1c0.7-0.8,1.7-1.2,3-1.2c1,0,1.9,0.3,2.6,0.9c0.7,0.6,1.2,1.3,1.4,2.3
				c0.1,0.4,0.1,0.7,0.1,1.1v26.8h13.7c1.1,0,2,0.2,2.8,0.7c0.7,0.5,1.2,1.2,1.4,2.1c0.1,0.2,0.1,0.5,0.1,0.8c0,1.2-0.4,2-1.2,2.6
				c-0.8,0.6-1.8,0.9-3,0.9h-17.1c-1.3,0-2.3-0.3-3.1-0.8c-0.8-0.5-1.3-1.3-1.6-2.5c-0.1-0.5-0.1-1-0.2-1.7L125.3,311.3z"/>
			<path class="st7" d="M152.3,311.4c0-1.3,0.4-2.3,1.1-3.1c0.8-0.8,1.8-1.2,3.1-1.2c1.1,0,2,0.3,2.7,0.9c0.8,0.6,1.2,1.4,1.4,2.3
				c0.1,0.4,0.1,0.7,0.1,1.1l0,12.6l13.3-15c0.6-0.6,1.1-1.1,1.6-1.4c0.5-0.3,1.1-0.5,1.8-0.5c0.9,0,1.8,0.3,2.5,0.8
				c0.8,0.5,1.2,1.2,1.4,2c0,0,0,0.1,0.1,0.3c0,0.1,0,0.3,0,0.3c0,0.6-0.2,1.1-0.4,1.6c-0.3,0.5-0.6,0.9-1,1.4l-8.7,9.3l10.3,15.9
				l0.3,0.5c0.7,1.1,1.1,1.9,1.2,2.4c0,0,0,0.1,0.1,0.3c0,0.2,0,0.2,0,0.3c0,1.5-0.4,2.5-1.3,3.2s-1.9,1-3.1,1
				c-0.9,0-1.6-0.1-2.1-0.5c-0.5-0.3-1.1-0.9-1.6-1.8l-9.8-15.4l-4.6,4.7l0,8.6c0,1.3-0.4,2.3-1.1,3.1c-0.8,0.8-1.8,1.2-3.1,1.2
				c-1.1,0-2-0.3-2.7-0.9c-0.7-0.6-1.2-1.4-1.4-2.4c-0.1-0.4-0.1-0.7-0.1-1.1L152.3,311.4z"/>
		</g>
	</g>
</g>
</svg>
