<?xml version="1.0" encoding="utf-8"?>
<!-- Generator: Adobe Illustrator 25.4.1, SVG Export Plug-In . SVG Version: 6.00 Build 0)  -->
<svg version="1.1" id="레이어_2" xmlns="http://www.w3.org/2000/svg" xmlns:xlink="http://www.w3.org/1999/xlink" x="0px"
	 y="0px" viewBox="0 0 180 180" style="enable-background:new 0 0 180 180;" xml:space="preserve">
<style type="text/css">
	.st0{fill-rule:evenodd;clip-rule:evenodd;fill:#38AB37;}
</style>
<path class="st0" d="M89.9,50.5c-4.6,0-9.1,0.6-13.3,1.7V43v-1.1c0-0.2,0-0.5-0.1-0.7c-0.8-11.3-9.6-19.6-20.3-19.6
	c-10.7,0-19.5,8.3-20.3,19.6c0,0.2-0.1,38.5-0.1,38.5v24.9c0,0.2,0,0.3,0,0.5c0.3,29.7,24.4,53.6,54.1,53.6
	c29.9,0,54.1-24.2,54.1-54.1S119.8,50.5,89.9,50.5z M89.9,150.4c-25.3,0-45.8-20.5-45.8-45.8V42.3c0-6.7,5.4-12.2,12.1-12.2
	c6.7,0,12.1,5.5,12.1,12.2l0,61.8c0,12,9.7,22.2,21.7,22.2c12,0,21.7-9.7,21.7-21.7c0-12-9.7-21.7-21.7-21.7c-5,0-9.6,1.7-13.3,4.6
	v-9.3c4-2,8.5-3.2,13.3-3.2c16.3,0,29.6,13.2,29.6,29.6c0,16.3-13.2,29.6-29.6,29.6c-16.3,0-29.6-13.2-29.6-29.6V41.9
	c0-2-1.8-4-4.1-4c-2.3,0-4.1,1.9-4.1,4v62.7c0,0.9,0,1.9,0.1,2.8c1.4,19.6,17.8,35,37.8,35c20.9,0,37.9-17,37.9-37.9
	c0-20.9-17-37.9-37.9-37.9c-4.7,0-9.2,0.9-13.3,2.4v-8.4c4.2-1.3,8.7-2,13.3-2c25.3,0,45.8,20.5,45.8,45.8
	C135.7,129.9,115.2,150.4,89.9,150.4z M76.6,104.6c0-7.4,6-13.3,13.3-13.3c7.4,0,13.3,6,13.3,13.3c0,7.4-6,13.3-13.3,13.3
	C82.6,117.9,76.6,112,76.6,104.6z"/>
</svg>
