<?xml version="1.0" encoding="utf-8"?>
<!-- Generator: Adobe Illustrator 25.4.1, SVG Export Plug-In . SVG Version: 6.00 Build 0)  -->
<svg version="1.1" id="레이어_1" xmlns="http://www.w3.org/2000/svg" xmlns:xlink="http://www.w3.org/1999/xlink" x="0px"
	 y="0px" viewBox="0 0 160 160" style="enable-background:new 0 0 160 160;" xml:space="preserve">
<style type="text/css">
	.st0{fill:none;stroke:#000000;stroke-width:8;stroke-miterlimit:10;}
</style>
<g>
	<path class="st0" d="M94.2,21.2h-74c-5.3,0-9.7,4.3-9.7,9.7L11,91.8c0,5.3,4.3,9.7,9.7,9.7h73.9c5.3,0,9.7-4.3,9.7-9.7l-0.4-60.8
		C103.8,25.5,99.5,21.2,94.2,21.2z"/>
</g>
<g>
	<g>
		<path class="st0" d="M96.2,101.4l45.4-0.6c4,0,7.2-3.2,7.2-7.2V75.1c-0.1-2.4-1.4-5.2-3.1-7l-20.2-25.9c-1.7-1.8-4.6-2.9-7-2.9
			h-10.7"/>
	</g>
</g>
<circle class="st0" cx="41.6" cy="125.6" r="13.2"/>
<circle class="st0" cx="111.4" cy="125.6" r="13.2"/>
</svg>
