<?xml version="1.0" encoding="utf-8"?>
<!-- Generator: Adobe Illustrator 25.4.1, SVG Export Plug-In . SVG Version: 6.00 Build 0)  -->
<svg version="1.1" id="레이어_2" xmlns="http://www.w3.org/2000/svg" xmlns:xlink="http://www.w3.org/1999/xlink" x="0px"
	 y="0px" viewBox="0 0 190 60" style="enable-background:new 0 0 190 60;" xml:space="preserve">
<style type="text/css">
	.st0{fill:#FF7C3B;}
	.st1{fill:#FFFFFF;}
</style>
<g transform="translate(1 1)">
	<g transform="translate(0 0)">
		<path class="st0" d="M31.1,57.3c-3.8,0-7.4-0.8-10.9-2.2c-3.4-1.4-6.3-3.5-8.9-6c-2.5-2.5-4.6-5.5-6-8.9C3.8,36.6,3,32.9,3,29.2
			s0.8-7.4,2.2-10.9c1.4-3.4,3.5-6.3,6-8.9c2.5-2.5,5.5-4.6,8.9-6c3.6-1.5,7.2-2.3,11-2.3S38.5,1.8,42,3.2c3.4,1.4,6.3,3.5,8.9,6
			c2.5,2.5,4.6,5.5,6,8.9c1.5,3.5,2.2,7.1,2.2,10.9S58.4,36.5,57,40c-1.4,3.4-3.5,6.3-6,8.9c-2.5,2.5-5.5,4.6-8.9,6
			C38.5,56.5,34.9,57.3,31.1,57.3z"/>
	</g>
	<g transform="translate(5.748 5.748)">
		<g transform="translate(24.788)">
			<path class="st1" d="M1.1,3.6c-0.5,0-0.9-0.4-0.9-0.9V1.1c0-0.5,0.4-0.9,0.9-0.9C1.5,0.2,2,0.5,2,1.1v1.6C2,3.2,1.5,3.6,1.1,3.6z
				"/>
			<path class="st1" d="M1.1,47.6c-0.5,0-0.9-0.4-0.9-0.9v-1.6c0-0.5,0.4-0.9,0.9-0.9c0.5,0,0.9,0.4,0.9,0.9v1.6
				C2,47.3,1.5,47.6,1.1,47.6z"/>
		</g>
		<g transform="translate(12.495 3.262)">
			<path class="st1" d="M2.8,3.2C2.6,3.2,2.2,3,2,2.7L1.2,1.4C1,0.9,1.2,0.4,1.6,0.2C2-0.2,2.6,0,2.8,0.4l0.8,1.3
				c0.3,0.5,0.1,1-0.3,1.2C3.1,3.1,2.9,3.2,2.8,3.2z"/>
			<path class="st1" d="M24.7,41.4c-0.3,0-0.7-0.2-0.8-0.5l-0.8-1.3c-0.3-0.5-0.1-1,0.4-1.2c0.5-0.3,1-0.1,1.2,0.4l0.8,1.3
				c0.3,0.5,0.1,1-0.4,1.2C24.9,41.3,24.8,41.4,24.7,41.4z"/>
		</g>
		<g transform="translate(3.314 12.405)">
			<path class="st1" d="M40.9,1.9c-0.3,0-0.7-0.2-0.8-0.5c-0.3-0.5-0.1-1,0.4-1.2l1.3-0.8c0.5-0.3,1-0.1,1.2,0.4
				c0.3,0.5,0.1,1-0.4,1.2l-1.3,0.8C41.3,1.8,41.1,1.9,40.9,1.9z"/>
			<path class="st1" d="M2.7,23.9c-0.3,0-0.7-0.2-0.8-0.5c-0.3-0.5-0.1-1,0.4-1.2l1.3-0.8c0.5-0.3,1-0.1,1.2,0.4
				c0.3,0.5,0.1,1-0.4,1.2l-1.3,0.8C3.1,23.8,2.9,23.9,2.7,23.9z"/>
		</g>
		<g transform="translate(0 24.788)">
			<path class="st1" d="M4.6,0.1H3c-0.5,0-0.9-0.4-0.9-0.9S2.5-1.8,3-1.8h1.6c0.5,0,0.9,0.4,0.9,0.9S5.1,0.1,4.6,0.1z"/>
			<path class="st1" d="M48.6,0.1H47c-0.5,0-0.9-0.4-0.9-0.9s0.4-0.9,0.9-0.9h1.6c0.5,0,0.9,0.4,0.9,0.9S49.2,0.1,48.6,0.1z"/>
		</g>
		<g transform="translate(12.609 3.197)">
			<path class="st1" d="M23.7,3.2c-0.2,0-0.3,0-0.5-0.1c-0.5-0.3-0.6-0.8-0.4-1.2l0.8-1.4c0.3-0.5,0.8-0.6,1.2-0.4
				c0.5,0.3,0.6,0.8,0.4,1.2l-0.8,1.3C24.3,3,24,3.2,23.7,3.2z"/>
			<path class="st1" d="M2,41.5c-0.2,0-0.3,0-0.5-0.1c-0.5-0.3-0.6-0.8-0.4-1.2l0.8-1.3c0.3-0.5,0.8-0.6,1.2-0.4
				c0.5,0.3,0.6,0.8,0.4,1.2l-0.8,1.3C2.7,41.3,2.4,41.5,2,41.5z"/>
		</g>
		<g transform="translate(3.197 12.609)">
			<path class="st1" d="M4.2,1.8c-0.2,0-0.3,0-0.5-0.1L2.4,0.9C1.9,0.6,1.8,0.1,2-0.3c0.3-0.5,0.8-0.6,1.2-0.4l1.3,0.8
				C5,0.4,5.2,0.9,4.9,1.3C4.8,1.7,4.4,1.8,4.2,1.8z"/>
			<path class="st1" d="M42.5,23.5c-0.2,0-0.3,0-0.5-0.1l-1.3-0.8c-0.5-0.3-0.6-0.8-0.4-1.2c0.3-0.5,0.8-0.6,1.2-0.4l1.3,0.8
				c0.5,0.3,0.6,0.8,0.4,1.2C43.2,23.3,42.9,23.5,42.5,23.5z"/>
		</g>
		<g transform="translate(12.915 16.034)">
			<path class="st1" d="M18.2,13.5H5.5c-3,0-4.1-7.6-4.4-10.9c0-0.3,0.1-0.5,0.2-0.8C1.5,1.7,1.8,1.6,2,1.6h16.7
				c0.5,0,0.9,0.4,0.9,0.9s-0.4,0.9-0.9,0.9H3c0.6,4.7,1.8,8.3,2.5,8.3h12.5c0.3-0.2,1.9-1.6,3-8.2c0-0.5,0.3-2.5,1.9-3.8
				c1.1-0.8,2.5-1,4.2-0.7c0.5,0.1,0.8,0.7,0.7,1.1c-0.1,0.5-0.7,0.8-1.1,0.7c-1.1-0.3-2.1-0.2-2.6,0.3c-1,0.8-1.1,2.4-1.1,2.4v0.1
				c-1.5,8.4-3.8,9.6-4.4,9.8C18.4,13.5,18.3,13.5,18.2,13.5z"/>
			<path class="st1" d="M7.7,19.6c-1.6,0-2.8-1.2-2.8-2.8S6.1,14,7.7,14s2.8,1.2,2.8,2.8C10.5,18.4,9.2,19.6,7.7,19.6z M7.7,15.8
				c-0.6,0-1,0.5-1,1c0,0.6,0.5,1,1,1s1-0.5,1-1C8.7,16.3,8.2,15.8,7.7,15.8z"/>
			<path class="st1" d="M15.3,19.6c-1.6,0-2.8-1.2-2.8-2.8s1.2-2.8,2.8-2.8s2.8,1.2,2.8,2.8C18.1,18.4,16.9,19.6,15.3,19.6z
				 M15.3,15.8c-0.6,0-1,0.5-1,1c0,0.6,0.5,1,1,1s0.9-0.5,0.9-1C16.3,16.3,15.9,15.8,15.3,15.8z"/>
			<path class="st1" d="M17.9,6.9H5.7C5.3,6.9,4.8,6.5,4.8,6S5.2,5,5.7,5h12.1c0.5,0,0.9,0.4,0.9,0.9S18.4,6.9,17.9,6.9z"/>
			<path class="st1" d="M16.4,10.4h-9c-0.5,0-0.9-0.4-0.9-0.9c0-0.5,0.4-0.9,0.9-0.9h9.1c0.5,0,0.9,0.4,0.9,0.9
				C17.3,9.9,16.9,10.4,16.4,10.4z"/>
		</g>
	</g>
</g>
<g>
	<path d="M82.9,31.1c-2.4-0.7-4.1-2.2-5.1-4c-1,2.2-2.7,3.9-5.3,4.8L71,29.4c3.6-1.2,5.2-4,5.2-6.8h-4.4v-2.5h12v2.5h-4.3
		c0,2.5,1.6,5,5,6L82.9,31.1z M88.9,36.4c0,2.7-2.9,4.3-7.5,4.3c-4.6,0-7.5-1.6-7.5-4.3c0-2.7,2.9-4.3,7.5-4.3
		C86,32.1,88.9,33.7,88.9,36.4z M85.8,36.4c0-1.3-1.5-1.9-4.3-1.9c-2.8,0-4.3,0.6-4.3,1.9c0,1.2,1.5,1.8,4.3,1.8
		C84.3,38.3,85.8,37.7,85.8,36.4z M91.6,23.7v2.6h-2.9v5.4h-3.2V18.6h3.2v5.1H91.6z"/>
	<path d="M112.5,35.6v2.6h-20v-2.6h8.4v-4.1h-6.3V20h3.1v3.4h9.5V20h3.1v11.5h-6.3v4.1H112.5z M97.8,29h9.5v-3.1h-9.5V29z"/>
	<path d="M121.9,24.5c0,3.4,1.8,7.3,5.4,9l-1.8,2.5c-2.4-1.1-4.2-3.3-5.2-6c-1,2.9-2.8,5.3-5.3,6.5l-1.8-2.5
		c3.6-1.7,5.4-5.8,5.4-9.5v-1.2h-4.6v-2.6h12.1v2.6h-4.4V24.5z M134.3,29.6h-3.2v11.1h-3.2V18.6h3.2V27h3.2V29.6z"/>
	<path d="M135.7,36.7c0-1.3,0.9-2.3,2.2-2.3c1.3,0,2.2,1,2.2,2.3c0,1.3-0.9,2.3-2.2,2.3C136.6,39,135.7,38,135.7,36.7z"/>
	<path d="M142,31.9c0-4.5,3.2-7.1,6.9-7.1c1.7,0,2.9,0.6,3.9,1.5l-1.7,2.3c-0.7-0.6-1.3-0.9-2.1-0.9c-2,0-3.4,1.7-3.4,4.2
		c0,2.5,1.4,4.2,3.3,4.2c1,0,1.9-0.5,2.6-1.1l1.4,2.3c-1.3,1.1-2.9,1.6-4.4,1.6C144.8,39,142,36.4,142,31.9z"/>
	<path d="M153.8,31.9c0-4.5,3.1-7.1,6.5-7.1s6.5,2.6,6.5,7.1c0,4.4-3.1,7-6.5,7S153.8,36.4,153.8,31.9z M163.1,31.9
		c0-2.5-1-4.2-2.9-4.2s-2.9,1.7-2.9,4.2c0,2.5,1,4.2,2.9,4.2S163.1,34.5,163.1,31.9z"/>
	<path d="M168.8,25.2h2.9l0.2,1.8h0.1c1.1-1.2,2.4-2.1,4.1-2.1c1.9,0,3,0.9,3.7,2.4c1.2-1.3,2.5-2.4,4.3-2.4c2.9,0,4.2,2,4.2,5.4
		v8.4h-3.5v-7.9c0-2.1-0.6-2.8-1.9-2.8c-0.8,0-1.6,0.5-2.6,1.5v9.2h-3.5v-7.9c0-2.1-0.6-2.8-1.9-2.8c-0.8,0-1.6,0.5-2.6,1.5v9.2
		h-3.5V25.2z"/>
</g>
</svg>
